<svg width="280" height="37" viewBox="0 0 280 37" fill="none" xmlns="http://www.w3.org/2000/svg">
<path d="M142.523 0.588907C143.753 0.588907 144.794 0.798747 145.646 1.21843C146.498 1.62457 147.147 2.20671 147.593 2.96484C148.039 3.70944 148.263 4.59618 148.263 5.62508C148.263 6.23429 148.168 6.85027 147.979 7.47303C147.803 8.08224 147.512 8.6373 147.107 9.13821C146.714 9.63912 146.18 10.0453 145.504 10.3566C144.842 10.6545 144.024 10.8034 143.05 10.8034H140.941V15.535H138V0.588907H142.523ZM143.03 7.94009C143.476 7.94009 143.848 7.86563 144.145 7.71671C144.443 7.55425 144.673 7.35795 144.835 7.1278C145.011 6.88412 145.132 6.63366 145.2 6.37644C145.281 6.11922 145.322 5.89584 145.322 5.70631C145.322 5.55739 145.295 5.36108 145.241 5.1174C145.2 4.86018 145.105 4.60295 144.957 4.34573C144.808 4.0885 144.578 3.87189 144.267 3.6959C143.97 3.5199 143.564 3.43191 143.05 3.43191H140.941V7.94009H143.03Z" fill="#FFFFFF"/>
<path d="M150.894 0.588907H161.075V3.43191H153.835V6.62013H160.244V9.46313H153.835V12.692H161.359V15.535H150.894V0.588907Z" fill="#FFFFFF"/>
<path d="M163.388 0.588907H173.448V3.43191H169.817V15.535H166.876V3.43191H163.388V0.588907Z" fill="#FFFFFF"/>
<path d="M180.809 0.588907C181.742 0.588907 182.573 0.71075 183.303 0.954435C184.033 1.18458 184.642 1.52304 185.129 1.96979C185.629 2.40301 186.007 2.931 186.264 3.55375C186.521 4.16296 186.65 4.85341 186.65 5.62508C186.65 6.23429 186.555 6.8435 186.366 7.45272C186.19 8.06193 185.893 8.61699 185.473 9.1179C185.068 9.61881 184.527 10.025 183.851 10.3363C183.175 10.6342 182.337 10.7831 181.336 10.7831H179.227V15.535H176.286V0.588907H180.809ZM181.316 7.94009C181.762 7.94009 182.134 7.86563 182.431 7.71671C182.729 7.56779 182.958 7.37826 183.121 7.14811C183.297 6.91796 183.418 6.68105 183.486 6.43736C183.567 6.18014 183.607 5.94322 183.607 5.72661C183.607 5.56416 183.58 5.36108 183.526 5.1174C183.486 4.86018 183.391 4.60295 183.242 4.34573C183.094 4.0885 182.864 3.87189 182.553 3.6959C182.255 3.5199 181.85 3.43191 181.336 3.43191H179.227V7.94009H181.316ZM184.074 9.76773L187.765 15.535H184.338L180.565 9.84896L184.074 9.76773Z" fill="#FFFFFF"/>
<path d="M188.506 15.535L195.24 0H195.402L202.136 15.535H198.728L194.429 4.60972L196.558 3.14761L191.407 15.535H188.506ZM193.11 10.1333H197.593L198.627 12.6107H192.198L193.11 10.1333Z" fill="#FFFFFF"/>
<path d="M208.693 0.588907C210.248 0.588907 211.485 0.907052 212.404 1.54334C213.324 2.1661 213.783 3.10022 213.783 4.34573C213.783 5.26632 213.554 6.03799 213.094 6.66074C212.648 7.26996 212.032 7.73025 211.248 8.04163C210.477 8.33946 209.592 8.48838 208.591 8.48838L208.125 6.90443C209.355 6.90443 210.444 7.07365 211.39 7.41211C212.35 7.75056 213.107 8.23793 213.662 8.87422C214.216 9.49697 214.493 10.2483 214.493 11.1283C214.493 11.9406 214.345 12.631 214.047 13.1996C213.763 13.7547 213.371 14.2082 212.871 14.5602C212.384 14.8987 211.83 15.1491 211.208 15.3116C210.586 15.4605 209.943 15.535 209.281 15.535H204.312V0.588907H208.693ZM209.037 6.70135C209.619 6.70135 210.045 6.52536 210.315 6.17337C210.599 5.82138 210.741 5.42201 210.741 4.97525C210.741 4.4608 210.565 4.07497 210.214 3.81774C209.876 3.56052 209.416 3.43191 208.835 3.43191H207.253V6.70135H209.037ZM209.139 12.7935C209.572 12.7935 209.964 12.7393 210.315 12.631C210.667 12.5092 210.944 12.3264 211.147 12.0827C211.35 11.8255 211.451 11.5074 211.451 11.1283C211.451 10.6951 211.329 10.3702 211.086 10.1536C210.843 9.92342 210.525 9.76773 210.133 9.6865C209.754 9.59174 209.355 9.54435 208.936 9.54435H207.253V12.7935H209.139Z" fill="#FFFFFF"/>
<path d="M221.966 0.588907C222.899 0.588907 223.731 0.71075 224.461 0.954435C225.191 1.18458 225.8 1.52304 226.286 1.96979C226.787 2.40301 227.165 2.931 227.422 3.55375C227.679 4.16296 227.807 4.85341 227.807 5.62508C227.807 6.23429 227.713 6.8435 227.524 7.45272C227.348 8.06193 227.05 8.61699 226.631 9.1179C226.225 9.61881 225.685 10.025 225.009 10.3363C224.333 10.6342 223.494 10.7831 222.494 10.7831H220.384V15.535H217.443V0.588907H221.966ZM222.473 7.94009C222.92 7.94009 223.291 7.86563 223.589 7.71671C223.886 7.56779 224.116 7.37826 224.278 7.14811C224.454 6.91796 224.576 6.68105 224.644 6.43736C224.725 6.18014 224.765 5.94322 224.765 5.72661C224.765 5.56416 224.738 5.36108 224.684 5.1174C224.644 4.86018 224.549 4.60295 224.4 4.34573C224.251 4.0885 224.022 3.87189 223.711 3.6959C223.413 3.5199 223.007 3.43191 222.494 3.43191H220.384V7.94009H222.473ZM225.232 9.76773L228.923 15.535H225.495L221.723 9.84896L225.232 9.76773Z" fill="#FFFFFF"/>
<path d="M231.348 0.588907H234.288V15.535H231.348V0.588907Z" fill="#FFFFFF"/>
<path d="M238.141 15.535V0.588907H242.603C244.104 0.588907 245.382 0.812285 246.436 1.25904C247.491 1.7058 248.336 2.30148 248.972 3.04607C249.621 3.79067 250.094 4.62326 250.391 5.54385C250.689 6.46444 250.838 7.3918 250.838 8.32593C250.838 9.43605 250.635 10.4379 250.229 11.3314C249.837 12.2114 249.296 12.9695 248.607 13.6058C247.917 14.2285 247.119 14.7091 246.213 15.0476C245.307 15.3725 244.347 15.535 243.333 15.535H238.141ZM241.082 12.692H242.826C243.57 12.692 244.246 12.5972 244.854 12.4077C245.463 12.2046 245.983 11.9135 246.416 11.5345C246.862 11.1554 247.2 10.6816 247.43 10.113C247.674 9.53082 247.795 8.86745 247.795 8.12285C247.795 7.14811 247.633 6.35613 247.309 5.74692C246.998 5.12417 246.605 4.64357 246.132 4.30511C245.672 3.96666 245.199 3.73651 244.712 3.61467C244.226 3.47929 243.813 3.4116 243.475 3.4116H241.082V12.692Z" fill="#FFFFFF"/>
<path d="M265.896 14.0322C265.721 14.2218 265.443 14.4181 265.065 14.6211C264.686 14.8107 264.247 14.9867 263.747 15.1491C263.26 15.3116 262.76 15.4402 262.246 15.535C261.732 15.6433 261.245 15.6974 260.785 15.6974C259.569 15.6974 258.473 15.5214 257.5 15.1694C256.526 14.8039 255.695 14.303 255.005 13.6667C254.316 13.0169 253.788 12.252 253.423 11.372C253.058 10.492 252.876 9.53082 252.876 8.48838C252.876 7.12104 253.078 5.93645 253.484 4.93463C253.903 3.91928 254.464 3.07992 255.167 2.41655C255.884 1.73964 256.702 1.23874 257.621 0.913821C258.554 0.588907 259.528 0.42645 260.542 0.42645C261.502 0.42645 262.381 0.534755 263.179 0.751364C263.976 0.954435 264.653 1.21166 265.207 1.52303L264.254 4.2645C264.01 4.12912 263.686 3.99374 263.28 3.85836C262.874 3.72297 262.462 3.61467 262.043 3.53344C261.624 3.43867 261.252 3.39129 260.927 3.39129C260.116 3.39129 259.4 3.49283 258.778 3.6959C258.156 3.89897 257.628 4.20358 257.196 4.60972C256.776 5.01586 256.459 5.52354 256.242 6.13276C256.026 6.72843 255.918 7.42564 255.918 8.22439C255.918 8.92837 256.04 9.56466 256.283 10.1333C256.526 10.6883 256.864 11.1622 257.297 11.5548C257.743 11.9474 258.264 12.2452 258.859 12.4483C259.467 12.6513 260.136 12.7529 260.867 12.7529C261.286 12.7529 261.671 12.7258 262.023 12.6717C262.374 12.604 262.672 12.5024 262.915 12.367V10.5597H260.339V7.71671H265.896V14.0322Z" fill="#FFFFFF"/>
<path d="M269.237 0.588907H279.419V3.43191H272.178V6.62013H278.587V9.46313H272.178V12.692H279.703V15.535H269.237V0.588907Z" fill="#FFFFFF"/>
<path d="M141.914 21.0094C142.982 21.0094 143.894 21.1915 144.652 21.5556C145.409 21.9062 145.99 22.4187 146.396 23.093C146.815 23.7673 147.024 24.5832 147.024 25.5407C147.024 26.1205 146.936 26.6937 146.761 27.2601C146.585 27.813 146.301 28.3187 145.909 28.7772C145.53 29.2223 145.03 29.5796 144.408 29.8494C143.786 30.1191 143.029 30.2539 142.137 30.2539H139.967V35.6347H138V21.0094H141.914ZM142.117 28.3727C142.698 28.3727 143.178 28.2783 143.556 28.0895C143.935 27.9007 144.232 27.6647 144.449 27.3815C144.665 27.0848 144.821 26.7746 144.915 26.4509C145.01 26.1273 145.057 25.8373 145.057 25.5811C145.057 25.2844 145.01 24.981 144.915 24.6708C144.821 24.3472 144.658 24.0572 144.428 23.801C144.212 23.5313 143.921 23.3155 143.556 23.1537C143.205 22.9784 142.766 22.8907 142.238 22.8907H139.967V28.3727H142.117Z" fill="#FFFFFF"/>
<path d="M147.194 35.6347L153.602 20.4026H153.724L160.112 35.6347H157.861L153.075 23.4773L154.474 22.567L149.121 35.6347H147.194ZM150.946 30.0921H156.401L157.05 31.7913H150.378L150.946 30.0921Z" fill="#FFFFFF"/>
<path d="M166.767 21.0094C167.511 21.0094 168.193 21.1106 168.815 21.3129C169.451 21.5017 169.998 21.7916 170.458 22.1827C170.931 22.5603 171.296 23.0323 171.553 23.5987C171.823 24.1516 171.958 24.7989 171.958 25.5407C171.958 26.1205 171.871 26.6869 171.695 27.2399C171.533 27.7928 171.255 28.2985 170.863 28.757C170.471 29.202 169.958 29.5662 169.322 29.8494C168.7 30.1191 167.93 30.2539 167.01 30.2539H164.841V35.6347H162.873V21.0094H166.767ZM166.97 28.3727C167.551 28.3727 168.031 28.285 168.41 28.1097C168.802 27.9344 169.106 27.7119 169.322 27.4421C169.538 27.1589 169.694 26.8555 169.789 26.5319C169.883 26.2082 169.931 25.9048 169.931 25.6216C169.931 25.3249 169.876 25.0215 169.768 24.7113C169.674 24.3876 169.511 24.0909 169.282 23.8212C169.065 23.5515 168.775 23.329 168.41 23.1537C168.058 22.9784 167.626 22.8907 167.112 22.8907H164.841V28.3727H166.97ZM169.383 29.4852L173.216 35.6347H170.945L167.051 29.5459L169.383 29.4852Z" fill="#FFFFFF"/>
<path d="M174.968 21.0094H184.702V22.8907H180.768V35.6347H178.801V22.8907H174.968V21.0094Z" fill="#FFFFFF"/>
<path d="M200.521 36.1L189.185 24.6304L189.753 24.772L189.793 35.6347H187.826V20.5644H187.928L199.142 32.0745L198.675 31.9734L198.635 21.0094H200.582V36.1H200.521Z" fill="#FFFFFF"/>
<path d="M204.798 21.0094H214.329V22.8907H206.765V27.341H213.518V29.2223H206.765V33.7535H214.613V35.6347H204.798V21.0094Z" fill="#FFFFFF"/>
<path d="M221.92 21.0094C222.664 21.0094 223.347 21.1106 223.969 21.3129C224.604 21.5017 225.152 21.7916 225.611 22.1827C226.084 22.5603 226.449 23.0323 226.706 23.5987C226.977 24.1516 227.112 24.7989 227.112 25.5407C227.112 26.1205 227.024 26.6869 226.848 27.2399C226.686 27.7928 226.409 28.2985 226.017 28.757C225.625 29.202 225.111 29.5662 224.476 29.8494C223.854 30.1191 223.083 30.2539 222.164 30.2539H219.994V35.6347H218.027V21.0094H221.92ZM222.123 28.3727C222.705 28.3727 223.184 28.285 223.563 28.1097C223.955 27.9344 224.259 27.7119 224.476 27.4421C224.692 27.1589 224.847 26.8555 224.942 26.5319C225.037 26.2082 225.084 25.9048 225.084 25.6216C225.084 25.3249 225.03 25.0215 224.922 24.7113C224.827 24.3876 224.665 24.0909 224.435 23.8212C224.219 23.5515 223.928 23.329 223.563 23.1537C223.211 22.9784 222.779 22.8907 222.265 22.8907H219.994V28.3727H222.123ZM224.536 29.4852L228.369 35.6347H226.098L222.204 29.5459L224.536 29.4852Z" fill="#FFFFFF"/>
<path d="M238.979 23.6189C238.478 23.3627 237.931 23.1402 237.336 22.9514C236.741 22.7626 236.16 22.6682 235.592 22.6682C234.808 22.6682 234.179 22.8502 233.706 23.2144C233.246 23.5785 233.017 24.064 233.017 24.6708C233.017 25.1293 233.165 25.5204 233.463 25.8441C233.76 26.1543 234.152 26.424 234.639 26.6532C235.126 26.8825 235.633 27.0983 236.16 27.3005C236.62 27.4759 237.072 27.6714 237.519 27.8872C237.965 28.1029 238.364 28.3727 238.715 28.6963C239.08 29.02 239.364 29.4178 239.567 29.8898C239.783 30.3618 239.891 30.9484 239.891 31.6497C239.891 32.4184 239.695 33.1196 239.303 33.7535C238.925 34.3873 238.377 34.8863 237.661 35.2504C236.944 35.6145 236.092 35.7966 235.105 35.7966C234.456 35.7966 233.835 35.7224 233.24 35.5741C232.658 35.4257 232.118 35.2369 231.617 35.0077C231.117 34.7649 230.671 34.5154 230.279 34.2592L231.151 32.7218C231.475 32.9511 231.847 33.1736 232.266 33.3894C232.685 33.5916 233.125 33.7602 233.584 33.8951C234.044 34.0164 234.49 34.0771 234.923 34.0771C235.383 34.0771 235.835 33.9962 236.282 33.8344C236.741 33.6591 237.12 33.3961 237.417 33.0455C237.715 32.6948 237.863 32.2296 237.863 31.6497C237.863 31.1507 237.728 30.7394 237.458 30.4158C237.201 30.0786 236.856 29.7954 236.424 29.5662C235.991 29.3234 235.531 29.1076 235.045 28.9188C234.585 28.7435 234.118 28.5547 233.645 28.3524C233.172 28.1367 232.733 27.8804 232.327 27.5837C231.922 27.2736 231.597 26.896 231.354 26.4509C231.11 26.0059 230.989 25.4665 230.989 24.8327C230.989 24.064 231.171 23.3964 231.536 22.83C231.915 22.2501 232.429 21.7984 233.077 21.4747C233.726 21.1376 234.47 20.9555 235.308 20.9285C236.255 20.9285 237.086 21.0432 237.802 21.2724C238.533 21.5017 239.175 21.7849 239.729 22.122L238.979 23.6189Z" fill="#FFFFFF"/>
<path d="M120.054 25.84C119.949 25.84 119.773 25.84 119.525 25.84C119.289 25.84 119.041 25.84 118.78 25.84C118.531 25.84 118.316 25.84 118.133 25.84C117.95 25.84 117.859 25.84 117.859 25.84L111.058 16.8419C110.94 16.6589 110.803 16.4302 110.646 16.1558C110.489 15.8813 110.352 15.5807 110.234 15.254C110.13 14.9142 110.078 14.5679 110.078 14.215C110.078 13.653 110.215 13.1303 110.489 12.6467C110.764 12.1501 111.156 11.7515 111.665 11.4509C112.188 11.1503 112.821 11 113.566 11C114.337 11 115.023 11.1503 115.624 11.4509C116.238 11.7515 116.741 12.1043 117.133 12.5095L116.173 13.7837C115.781 13.4178 115.389 13.1303 114.997 12.9212C114.618 12.699 114.239 12.5879 113.86 12.5879C113.285 12.5879 112.835 12.7643 112.508 13.1172C112.194 13.457 112.037 13.8687 112.037 14.3522C112.037 14.5875 112.083 14.8293 112.175 15.0776C112.279 15.3259 112.377 15.535 112.469 15.7049C112.573 15.8748 112.639 15.9859 112.665 16.0382L120.054 25.84ZM112.88 19.0179C112.514 19.0179 112.155 19.0898 111.802 19.2336C111.45 19.3773 111.136 19.5734 110.862 19.8217C110.587 20.07 110.365 20.364 110.195 20.7038C110.038 21.0306 109.96 21.3834 109.96 21.7624C109.96 22.2721 110.091 22.723 110.352 23.1151C110.626 23.4941 110.986 23.7947 111.43 24.0169C111.887 24.226 112.384 24.3305 112.919 24.3305C113.416 24.3305 113.854 24.2587 114.233 24.1149C114.612 23.9581 114.938 23.7555 115.213 23.5072C115.487 23.2458 115.69 22.9648 115.82 22.6642L117.035 23.7228C116.683 24.3763 116.134 24.9252 115.389 25.3695C114.657 25.8139 113.756 26.0361 112.684 26.0361C111.796 26.0361 110.999 25.8531 110.293 25.4872C109.588 25.1212 109.026 24.6246 108.608 23.9973C108.203 23.37 108 22.6577 108 21.8605C108 21.2462 108.137 20.6777 108.412 20.1549C108.686 19.6322 109.052 19.1813 109.509 18.8023C109.98 18.4102 110.496 18.1031 111.058 17.8809C111.632 17.6587 112.227 17.5411 112.841 17.528L112.88 19.0179ZM117.8 17.528H119.544L117.251 23.4092L115.879 22.5466L117.8 17.528Z" fill="#FFFFFF"/>
<path d="M0 29.7992L10.3164 6.03107H10.565L20.8814 29.7992H15.661L9.07346 13.0838L12.3362 10.8468L4.44351 29.7992H0ZM7.05369 21.5347H13.9209L15.5057 25.3252H5.65538L7.05369 21.5347Z" fill="#FFFFFF"/>
<path d="M27.1921 29.7992V6H27.2232L39.9322 24.0203L38.0057 23.5853L50.6837 6H50.7458V29.7992H46.2401V16.1597L46.5198 18.4899L38.7825 29.4885H38.7204L30.7655 18.4899L31.5424 16.3461V29.7992H27.1921Z" fill="#FFFFFF"/>
<path d="M59.6341 6.93208H64.1398V29.7992H59.6341V6.93208Z" fill="#FFFFFF"/>
<path d="M90.172 27.904C89.9234 28.1111 89.4573 28.3907 88.7737 28.7429C88.1107 29.095 87.2925 29.4057 86.3188 29.6749C85.3452 29.9442 84.268 30.0685 83.0872 30.0478C81.2849 30.0064 79.6691 29.6853 78.2397 29.0846C76.8311 28.4632 75.6296 27.6244 74.6352 26.568C73.6616 25.5116 72.9158 24.2999 72.3979 22.9329C71.88 21.5658 71.6211 20.1055 71.6211 18.5521C71.6211 16.8122 71.88 15.2173 72.3979 13.7674C72.9365 12.3175 73.6926 11.0643 74.6663 10.008C75.6606 8.9516 76.8414 8.13344 78.2087 7.55347C79.5759 6.97351 81.0881 6.68353 82.7454 6.68353C84.2784 6.68353 85.6352 6.89066 86.816 7.30492C87.9968 7.71918 88.9601 8.16451 89.7059 8.64091L87.9347 12.8974C87.4168 12.5039 86.7228 12.1 85.8527 11.6857C85.0034 11.2507 84.0194 11.0333 82.9008 11.0333C82.0307 11.0333 81.1917 11.2197 80.3838 11.5925C79.5966 11.9446 78.8923 12.4521 78.2708 13.1149C77.6701 13.7777 77.1936 14.5545 76.8414 15.4451C76.4893 16.3151 76.3132 17.2679 76.3132 18.3035C76.3132 19.4013 76.4685 20.4059 76.7793 21.3173C77.1107 22.2286 77.5768 23.0157 78.1776 23.6785C78.7783 24.3206 79.493 24.8177 80.3217 25.1699C81.171 25.522 82.1239 25.6981 83.1804 25.6981C84.4026 25.6981 85.4488 25.5013 86.3188 25.1077C87.1889 24.7142 87.8518 24.2999 88.3075 23.865L90.172 27.904Z" fill="#FFFFFF"/>
</svg>
