<svg width="187" height="50" viewBox="0 0 187 50" fill="none" xmlns="http://www.w3.org/2000/svg">
<path d="M0 49.4786L21.3943 0.0645927H21.9098L43.3042 49.4786H32.4781L18.8167 14.7273L25.583 10.0766L9.21502 49.4786H0ZM14.628 32.2968H28.8694L32.1559 40.1772H11.7282L14.628 32.2968Z" fill="#0F3A32"/>
<path d="M56.3914 49.4786V0H56.4558L82.812 37.4642L78.8167 36.5599L105.109 0H105.237V49.4786H95.8935V21.1221L96.4735 25.9666L80.4278 48.8327H80.2989L63.802 25.9666L65.4131 21.5096V49.4786H56.3914Z" fill="#0F3A32"/>
<path d="M123.67 1.9378H133.014V49.4786H123.67V1.9378Z" fill="#0F3A32"/>
<path d="M187 45.5384C186.484 45.9691 185.518 46.5504 184.1 47.2825C182.725 48.0145 181.028 48.6605 179.009 49.2203C176.99 49.7801 174.756 50.0384 172.308 49.9954C168.57 49.9093 165.219 49.2418 162.255 47.993C159.333 46.7011 156.842 44.9571 154.78 42.7609C152.76 40.5647 151.214 38.0456 150.14 35.2035C149.066 32.3614 148.529 29.3255 148.529 26.0958C148.529 22.4785 149.066 19.1627 150.14 16.1484C151.257 13.134 152.825 10.5287 154.844 8.33256C156.906 6.13639 159.355 4.43542 162.19 3.22968C165.026 2.02393 168.162 1.42106 171.599 1.42106C174.778 1.42106 177.592 1.85168 180.04 2.71293C182.489 3.57417 184.487 4.50001 186.033 5.49045L182.36 14.3398C181.286 13.5216 179.847 12.6819 178.043 11.8206C176.281 10.9163 174.241 10.4641 171.921 10.4641C170.117 10.4641 168.377 10.8517 166.701 11.6268C165.069 12.3589 163.608 13.4139 162.319 14.7919C161.073 16.1699 160.085 17.7848 159.355 19.6364C158.625 21.445 158.259 23.4259 158.259 25.579C158.259 27.8613 158.582 29.9499 159.226 31.8446C159.913 33.7393 160.88 35.3757 162.126 36.7537C163.372 38.0886 164.854 39.1221 166.572 39.8542C168.334 40.5863 170.31 40.9523 172.501 40.9523C175.036 40.9523 177.205 40.5432 179.009 39.725C180.814 38.9068 182.188 38.0456 183.134 37.1413L187 45.5384Z" fill="#0F3A32"/>
</svg>
