<svg width="175" height="28" viewBox="0 0 175 28" fill="none" xmlns="http://www.w3.org/2000/svg">
<path d="M0 27.708L12.017 0.0361719H12.3066L24.3235 27.708H18.2427L10.5692 8.2473L14.3697 5.64289L5.17599 27.708H0ZM8.21643 18.0862H16.2157L18.0617 22.4992H6.58763L8.21643 18.0862Z" fill="#0F3A32"/>
<path d="M31.6745 27.708V0H31.7107L46.5148 20.98L44.2706 20.4736L59.0385 0H59.1109V27.708H53.8625V11.8284L54.1883 14.5413L45.1755 27.3463H45.1031L35.837 14.5413L36.7419 12.0454V27.708H31.6745Z" fill="#0F3A32"/>
<path d="M69.4644 1.08517H74.7128V27.708H69.4644V1.08517Z" fill="#0F3A32"/>
<path d="M105.036 25.5015C104.747 25.7427 104.204 26.0682 103.407 26.4782C102.635 26.8881 101.682 27.2499 100.548 27.5633C99.4138 27.8768 98.159 28.0215 96.7835 27.9974C94.6842 27.9492 92.802 27.5754 91.137 26.8761C89.4961 26.1526 88.0965 25.176 86.9383 23.9461C85.8041 22.7162 84.9354 21.3055 84.3322 19.7139C83.7289 18.1224 83.4273 16.4223 83.4273 14.6136C83.4273 12.588 83.7289 10.7311 84.3322 9.04309C84.9596 7.35505 85.8403 5.8961 86.9745 4.66624C88.1327 3.43638 89.5082 2.48384 91.1008 1.80862C92.6934 1.1334 94.4549 0.795793 96.3854 0.795793C98.171 0.795793 99.7516 1.03694 101.127 1.51924C102.502 2.00154 103.625 2.52001 104.493 3.07465L102.43 8.03027C101.827 7.57208 101.018 7.10184 100.005 6.61954C99.0156 6.11313 97.8694 5.85992 96.5664 5.85992C95.5529 5.85992 94.5756 6.07696 93.6345 6.51103C92.7175 6.92098 91.8971 7.5118 91.1732 8.28347C90.4734 9.05515 89.9184 9.95946 89.5082 10.9964C89.098 12.0092 88.8929 13.1185 88.8929 14.3243C88.8929 15.6024 89.0738 16.7719 89.4358 17.833C89.8219 18.894 90.3648 19.8104 91.0646 20.5821C91.7644 21.3296 92.5969 21.9084 93.5621 22.3184C94.5515 22.7283 95.6615 22.9333 96.8921 22.9333C98.3158 22.9333 99.5344 22.7042 100.548 22.246C101.561 21.7878 102.334 21.3055 102.864 20.7991L105.036 25.5015Z" fill="#0F3A32"/>
<path d="M119.043 7.81892H121.634V24.6365H131.434V27.1191H119.043V7.81892Z" fill="#0F3A32"/>
<path d="M133.733 27.1191L142.171 7.01808H142.331L150.743 27.1191H147.779L141.477 11.0757L143.319 9.8744L136.27 27.1191H133.733ZM138.673 19.8048H145.856L146.711 22.0471H137.925L138.673 19.8048Z" fill="#0F3A32"/>
<path d="M150.272 7.92569H153.263L158.497 22.6611L158.043 22.4742L161.862 12.5972L163.063 16.0942L157.963 28L150.272 7.92569ZM159.538 7.92569H162.129L167.79 22.4475L167.256 22.3407L172.249 7.92569H175L167.416 27.9733L159.538 7.92569Z" fill="#0F3A32"/>
</svg>
